<svg version="1.1" viewBox="0.0 0.0 227.01574803149606 171.0" fill="none" stroke="none" stroke-linecap="square" stroke-miterlimit="10" xmlns:xlink="http://www.w3.org/1999/xlink" xmlns="http://www.w3.org/2000/svg"><clipPath id="p.0"><path d="m0 0l227.01575 0l0 171.0l-227.01575 0l0 -171.0z" clip-rule="nonzero"/></clipPath><g clip-path="url(#p.0)"><path fill="#000000" fill-opacity="0.0" d="m0 0l227.01575 0l0 171.0l-227.01575 0z" fill-rule="evenodd"/><path fill="#000000" fill-opacity="0.0" d="m0 0l227.02362 0l0 170.89764l-227.02362 0z" fill-rule="evenodd"/><path fill="#000000" d="m35.0625 40.880005l29.75 74.25l29.75 -74.25l15.5625 0l0 91.0l-12.0 0l0 -35.4375l1.125 -38.25l-29.875 73.6875l-9.1875 0l-29.8125 -73.5l1.1875 38.0625l0 35.4375l-12.0 0l0 -91.0l15.5 0zm166.1875 91.0l-12.0625 0l0 -42.0625l-45.875 0l0 42.0625l-12.0 0l0 -91.0l12.0 0l0 39.125l45.875 0l0 -39.125l12.0625 0l0 91.0z" fill-rule="nonzero"/></g></svg>